<svg id="Layer_1" data-name="Layer 1" xmlns="http://www.w3.org/2000/svg" viewBox="0 0 451.07 120.37"><defs><style>.cls-1{fill:#00cd6f;}.cls-2{fill:#1f5aa1;}</style></defs><title>kordami-logo</title><path class="cls-1" d="M1188.52,339.28a5.61,5.61,0,0,1-.73-5.23l0.87-2.38a5.67,5.67,0,0,0-1-5.62l-3.44-4.06a5.64,5.64,0,0,1-.54-0.76c-0.24-.74-0.49-1.47-0.76-2.2a5.65,5.65,0,0,1,.16-2.25l2.48-8.77a5.66,5.66,0,0,0-2.86-6.58l-3.28-1.68a5.66,5.66,0,0,1-3.08-5V288.4a5.66,5.66,0,0,0-5.28-5.65l-3.1-.21a5.66,5.66,0,0,1-4.82-3.42l-1.3-3a5.66,5.66,0,0,0-7.31-3l-1.2.48a5.66,5.66,0,0,1-5.67-.86l-4.77-3.87a5.66,5.66,0,0,0-5.7-.85l-2.59,1.05a5.66,5.66,0,0,1-5.46-.67l-0.71-.52a5.66,5.66,0,0,0-5.66-.58l-2.65,1.2a5.66,5.66,0,0,1-5.23-.29l-4.09-2.43a5.66,5.66,0,0,0-6.38.41l-3.52,2.75a5.66,5.66,0,0,1-4.57,1.1l-3.31-.64a5.66,5.66,0,0,0-5.9,2.58h0a5.66,5.66,0,0,1-4.15,2.64l-3.75.44a5.66,5.66,0,0,0-4.12,2.6l-1.87,2.95c-22,12.48-37.2,34.57-37.2,58.59,0,17.53,7.38,28.31,13.58,34.28a43,43,0,0,0,29.56,11.89c11,0,21-3.2,28.2-9,8.27-6.72,12.64-16.64,12.64-28.71,0-16.2-8.66-31.11-28.81-31.11-15.28,0-27.25,11.36-27.25,25.86,0,13.38,10.32,20.38,19.32,20.38,9.25,0,18.09-6,18.09-18.85h-6.88c0,9.52-6.3,12-11.21,12-7.9,0-12.45-7.48-12.45-13.5,0-10.82,8.76-19,20.37-19,14.45,0,21.94,10.76,21.94,24.23,0,22.75-17.54,30.86-34,30.86-18,0-36.26-13.5-36.26-39.29,0-20.07,12-38.64,29.63-50.2a74,74,0,0,1,40.32-12.11A67.74,67.74,0,0,1,1180.44,341h-47.87c0.32-4.13,1.66-11.43,6.83-17,0.18-.19.37-0.37,0.55-0.55s0.66-.63,1-0.93a24,24,0,0,1,10.37-5.12,38.64,38.64,0,0,1,8.93-1v-6.88c-11.11,0-19.81,3.28-25.87,9.75-0.27.29-.53,0.59-0.79,0.88a30.87,30.87,0,0,0-5.15,8.52,39.37,39.37,0,0,0-2.81,15.92l0.21,3.22h61.56v0l0,0,1.2-1.92A5.91,5.91,0,0,0,1188.52,339.28Z" transform="translate(-1036.03 -264.92)"/><path class="cls-1" d="M1146.23,326.45c0,0.11,0,.21,0,0.31A4,4,0,1,0,1146.23,326.45Z" transform="translate(-1036.03 -264.92)"/><path class="cls-2" d="M1203.56,294.9h11.84v21.36h0.24l15.6-21.36h12.88l-15.76,20.8,18.72,31.36h-13l-12.64-22-6.08,8v14h-11.84V294.9Z" transform="translate(-1036.03 -264.92)"/><path class="cls-2" d="M1265.85,306.42c10,0,19.28,7.6,19.28,20.8s-9.28,20.8-19.28,20.8-19.36-7.6-19.36-20.8S1255.77,306.42,1265.85,306.42Zm0,32.08c4.8,0,7.28-4.4,7.28-11.28s-2.48-11.28-7.28-11.28-7.28,4.4-7.28,11.28S1261,338.5,1265.85,338.5Z" transform="translate(-1036.03 -264.92)"/><path class="cls-2" d="M1291.84,307.38h9.6l0.8,7h0.32c2.88-5.36,7.2-7.92,11.28-7.92a11.39,11.39,0,0,1,4.72.8l-1.92,10.16a14.8,14.8,0,0,0-4.32-.64c-3,0-6.64,1.92-8.72,7.28v23h-11.76V307.38Z" transform="translate(-1036.03 -264.92)"/><path class="cls-2" d="M1336.48,306.42c4.4,0,7,1.6,9.76,4.16l-0.48-6.08V291h11.76v56.08h-9.6l-0.8-3.92h-0.32c-2.8,2.8-6.72,4.88-10.56,4.88-9.84,0-16.24-7.84-16.24-20.8S1328.08,306.42,1336.48,306.42Zm2.8,32c2.56,0,4.56-1,6.48-3.6V318.58a9.4,9.4,0,0,0-6.56-2.56c-3.76,0-7.12,3.52-7.12,11C1332.08,334.9,1334.72,338.42,1339.28,338.42Z" transform="translate(-1036.03 -264.92)"/><path class="cls-2" d="M1386.95,321.54c-0.24-3.52-2-5.76-6.24-5.76-3.36,0-6.72,1.36-10.56,3.6l-4.16-7.76a32.8,32.8,0,0,1,17-5.2c10.16,0,15.76,5.76,15.76,17.92v22.72h-9.6l-0.88-4.08H1388c-3.36,3-7.12,5-11.6,5-7.2,0-11.76-5.28-11.76-12C1364.62,327.7,1371.26,323.14,1386.95,321.54Zm-6.56,17.36c2.72,0,4.48-1.28,6.56-3.36v-7c-8.4,1.12-11.12,3.52-11.12,6.56C1375.82,337.7,1377.58,338.9,1380.38,338.9Z" transform="translate(-1036.03 -264.92)"/><path class="cls-2" d="M1407.33,307.38h9.6l0.8,5.12H1418c3.28-3.28,6.8-6.08,12-6.08,5.6,0,9,2.4,11,6.64,3.52-3.6,7.2-6.64,12.48-6.64,8.56,0,12.4,6.08,12.4,16v24.64h-11.76V323.94c0-5.76-1.52-7.52-4.88-7.52-2,0-4.24,1.28-6.8,3.84v26.8h-11.76V323.94c0-5.76-1.52-7.52-4.88-7.52-1.92,0-4.24,1.28-6.72,3.84v26.8h-11.76V307.38Z" transform="translate(-1036.03 -264.92)"/><path class="cls-2" d="M1473.5,295.38c0-3.6,2.88-6.08,6.8-6.08s6.8,2.48,6.8,6.08-2.8,6.16-6.8,6.16S1473.5,299,1473.5,295.38Zm1,12h11.76v39.68h-11.76V307.38Z" transform="translate(-1036.03 -264.92)"/></svg>