<svg xmlns="http://www.w3.org/2000/svg" viewBox="0 0 125 23.5"><style type="text/css">.st0,.st1{fill:#fff}.st1{fill-opacity:.5}</style><title>Group 2</title><path d="M37.1 10.6v6.6c0 1.6 0 2.3 1.3 2.3.9 0 2.4-.1 2.4-.1l.2 3.4s-2.1.5-3.3.5c-3.9 0-5-1.5-5-6.1v-6.7H31V7h1.9V2.5L37.1 0v7H41v3.7l-3.9-.1zm15.8 2.9c0-2.6-.8-3.4-2.8-3.4-2 0-2.7 1-2.8 3.4h5.6zm3.6 5.8l.1 3.1s-3.7.9-6.7.9c-4.8 0-6.9-2.4-6.9-8.1 0-5.7 2.4-8.6 7.1-8.6 4.7 0 7 2.5 7 7.2 0 2-.3 3-.3 3h-9.4c0 1.9.9 2.8 3.2 2.8 2.6 0 5.9-.3 5.9-.3zm3.6 3.7V7h4.3v.9s2.2-1.3 4-1.3c4.5 0 5.6 2.8 5.6 7.7V23h-4.3v-8.5c0-2.4-.3-4-2.4-4-1.5 0-2.9.6-2.9.6V23h-4.3zm21.1 0h-2.4V9.1h-2V7h2V6c0-4.6 1.2-5.9 4.3-5.9 1.1 0 3.2.2 3.2.2l-.1 2s-1.8-.1-2.7-.1c-1.8 0-2.4.8-2.4 3.7v1h4.6V9h-4.6l.1 14zM99 14.8c0-4.5-1-6.1-4.4-6.1-3.4 0-4.4 1.6-4.4 6.1s.6 6.4 4.4 6.4c3.8 0 4.3-1.9 4.4-6.4m2.4 0c0 5.8-1.4 8.5-6.8 8.5s-6.9-2.7-6.9-8.5c0-5.5 1.8-8.1 6.9-8.1 5-.1 6.8 2.6 6.8 8.1M105.5 0h2.4v23h-2.4V0zm17.1 20V9.1c-.5-.1-2.5-.4-3.8-.4-3.4 0-4.3 2.2-4.3 6.4 0 5.2 1.7 6 3.6 6 2.3 0 4.6-1.1 4.5-1.1zm2.4 3h-2.4v-1.1s-2.5 1.4-4.9 1.4c-3.1 0-5.8-1.3-5.8-8.2 0-5.6 1.8-8.4 6.7-8.4 1.4 0 3.5.3 3.9.4V0h2.4c.1 0 .1 23 .1 23zM23.2 3.1c0 1.7-1.4 3-3 3-1.7 0-3-1.4-3-3 0-1.7 1.4-3 3-3 1.7 0 3 1.4 3 3m-8.6 8.6c0 1.7-1.3 3-3 3s-3-1.4-3-3 1.3-3 3-3 3 1.4 3 3m8.6 0c0 1.7-1.4 3-3 3-1.7 0-3-1.4-3-3s1.4-3 3-3c1.7 0 3 1.4 3 3M6 20.3c0 1.7-1.3 3-3 3s-3-1.4-3-3c0-1.7 1.4-3 3-3 1.7 0 3 1.3 3 3m8.6 0c0 1.7-1.3 3-3 3s-3-1.4-3-3c0-1.7 1.3-3 3-3s3 1.3 3 3" class="st0"/><path d="M12.8 21.5H3v-2.4h7.5v-8.6H19V3.1h2.3v9.8h-8.6l.1 8.6z" class="st0"/><path d="M6 3.1c0 1.7-1.3 3-3 3s-3-1.4-3-3c0-1.7 1.4-3 3-3 1.7 0 3 1.4 3 3m8.6 0c0 1.7-1.3 3-3 3s-3-1.4-3-3c0-1.7 1.3-3 3-3s3 1.4 3 3M6 11.7c0 1.7-1.3 3-3 3s-3-1.4-3-3 1.4-3 3-3c1.7 0 3 1.4 3 3m17.2 8.6c0 1.7-1.4 3-3 3-1.7 0-3-1.4-3-3 0-1.7 1.4-3 3-3 1.7 0 3 1.3 3 3" class="st1"/></svg>